<svg width="127" height="127" viewBox="0 0 127 127" fill="none" xmlns="http://www.w3.org/2000/svg">
<path d="M127 63.5C127 67.5518 121.387 71.039 120.623 74.8583C119.826 78.8104 123.679 84.1574 122.184 87.8107C120.657 91.5303 114.147 92.5599 111.922 95.8478C109.697 99.1689 111.191 105.579 108.402 108.402C105.579 111.225 99.1689 109.697 95.8478 111.922C92.5599 114.114 91.4971 120.623 87.8107 122.184C84.1574 123.679 78.8436 119.86 74.8583 120.623C71.0058 121.387 67.5518 127 63.5 127C59.4482 127 55.961 121.387 52.1417 120.623C48.1896 119.826 42.8426 123.679 39.1893 122.184C35.4697 120.657 34.4401 114.147 31.1522 111.922C27.8311 109.697 21.4213 111.191 18.5983 108.402C15.7754 105.579 17.3031 99.1689 15.0779 95.8478C12.886 92.5599 6.37657 91.4971 4.81564 87.8107C3.32113 84.1574 7.14043 78.8436 6.37657 74.8583C5.61271 71.0058 0 67.5518 0 63.5C0 59.4482 5.61271 55.961 6.37657 52.1417C7.17364 48.1896 3.32113 42.8426 4.81564 39.1893C6.34336 35.4697 12.8528 34.4401 15.0779 31.1522C17.3031 27.8311 15.8086 21.4213 18.5983 18.5983C21.4213 15.7754 27.8311 17.3031 31.1522 15.0779C34.4401 12.886 35.5029 6.37657 39.1893 4.81564C42.8426 3.32113 48.1564 7.14042 52.1417 6.37656C55.9942 5.6127 59.4482 0 63.5 0C67.5518 0 71.039 5.6127 74.8583 6.37656C78.8104 7.17363 84.1574 3.32113 87.8107 4.81564C91.5303 6.34336 92.5599 12.8528 95.8478 15.0779C99.1689 17.3031 105.579 15.8086 108.402 18.5983C111.225 21.4213 109.697 27.8311 111.922 31.1522C114.114 34.4401 120.623 35.5029 122.184 39.1893C123.679 42.8426 119.86 48.1564 120.623 52.1417C121.387 55.9942 127 59.4482 127 63.5Z" fill="#000000"/>
</svg>
