<svg width="219" height="219" viewBox="0 0 219 219" fill="none" xmlns="http://www.w3.org/2000/svg">
<path d="M109.499 136.806C94.4259 136.806 82.1702 124.551 82.1702 109.477C82.1702 94.4037 94.4259 82.148 109.499 82.148C124.573 82.148 136.829 94.4037 136.829 109.477C136.806 124.551 124.55 136.806 109.499 136.806ZM109.499 93.6249C100.748 93.6249 93.6241 100.749 93.6241 109.5C93.6241 118.251 100.748 125.375 109.499 125.375C118.25 125.375 125.375 118.251 125.375 109.5C125.375 100.749 118.25 93.6249 109.499 93.6249Z" fill="black"/>
<path d="M109.547 157.63C106.248 157.63 102.95 157.286 99.6966 156.622C87.1201 154.01 76.3076 146.634 69.2519 135.89C62.1963 125.146 59.768 112.295 62.3795 99.6954C64.6474 88.7912 70.6722 78.9637 79.3085 71.9997C87.8532 65.1273 98.5512 61.3475 109.455 61.3475C112.754 61.3475 116.053 61.6911 119.306 62.3554C131.882 64.9669 142.695 72.3433 149.75 83.0871C156.806 93.8309 159.234 106.682 156.623 119.282C154.355 130.186 148.33 140.013 139.694 146.977C131.126 153.85 120.428 157.63 109.547 157.63ZM109.455 72.8014C92.2057 72.8014 77.1094 85.0801 73.5815 102.009C69.4581 121.801 82.2178 141.273 102.01 145.397C104.484 145.924 107.027 146.176 109.524 146.176C126.774 146.176 141.87 133.897 145.398 116.968C147.391 107.37 145.535 97.5878 140.175 89.3868C134.814 81.1857 126.568 75.5733 116.969 73.5803C114.495 73.0763 111.952 72.8014 109.455 72.8014Z" fill="black"/>
<path d="M109.569 177.766C107.462 177.766 105.331 177.674 103.201 177.468C85.0349 175.796 68.6329 167.136 56.9727 153.117C45.3126 139.097 39.8376 121.366 41.5099 103.223C43.0905 86.1797 50.925 70.4419 63.616 58.965C76.2154 47.5339 92.48 41.2572 109.409 41.2572C111.517 41.2572 113.647 41.3488 115.777 41.555C133.943 43.2272 150.346 51.8865 162.006 65.9061C173.666 79.9258 179.141 97.6566 177.469 115.823C175.888 132.866 168.053 148.604 155.362 160.081C142.763 171.466 126.498 177.766 109.569 177.766ZM109.409 52.6882C79.9265 52.6882 55.644 74.8632 52.918 104.277C50.0316 135.478 73.0541 163.196 104.255 166.083C106.019 166.243 107.805 166.335 109.569 166.335C139.052 166.335 163.334 144.16 166.06 114.746C168.947 83.5452 145.924 55.8267 114.724 52.9403C112.96 52.757 111.173 52.6882 109.409 52.6882Z" fill="black"/>
<path d="M109.546 198.291C108.515 198.291 107.461 198.268 106.407 198.245C94.4262 197.833 82.8806 195.084 72.091 190.067C61.6679 185.234 52.4131 178.499 44.5327 170.068C36.6524 161.638 30.6047 151.925 26.5042 141.204C22.2433 130.094 20.319 118.388 20.7313 106.407C21.5331 83.2474 31.1545 61.6452 47.8544 45.5638C64.4856 29.5282 86.3627 20.6858 109.431 20.6858C110.462 20.6858 111.516 20.7087 112.569 20.7316C124.55 21.1439 136.096 23.8929 146.885 28.9097C157.309 33.7433 166.563 40.4782 174.444 48.9084C182.324 57.3385 188.372 67.0515 192.472 77.7724C196.733 88.8827 198.657 100.589 198.245 112.57C197.443 135.729 187.822 157.332 171.122 173.413C154.491 189.472 132.614 198.291 109.546 198.291ZM109.431 32.1398C67.5552 32.1398 33.6285 64.9439 32.1853 106.82C30.6963 149.451 64.1878 185.325 106.797 186.814C107.713 186.837 108.629 186.86 109.523 186.86C151.398 186.86 185.325 154.056 186.768 112.18C188.257 69.5485 154.766 33.6746 112.157 32.1856C111.264 32.1627 110.347 32.1398 109.431 32.1398Z" fill="black"/>
<path d="M109.5 219C94.7244 219 80.384 216.114 66.8683 210.387C53.8337 204.866 42.1277 196.985 32.0711 186.929C22.0145 176.872 14.1113 165.166 8.61341 152.132C2.90933 138.616 0 124.276 0 109.5C0 94.7244 2.88642 80.384 8.61341 66.8683C14.1342 53.8337 22.0145 42.1277 32.0711 32.0711C42.1277 22.0145 53.8337 14.1113 66.8683 8.61341C80.384 2.90933 94.7244 0 109.5 0C124.276 0 138.616 2.88642 152.132 8.61341C165.166 14.1342 176.872 22.0145 186.929 32.0711C196.985 42.1277 204.889 53.8337 210.387 66.8683C216.091 80.384 219 94.7244 219 109.5C219 124.276 216.114 138.616 210.387 152.132C204.866 165.166 196.985 176.872 186.929 186.929C176.872 196.985 165.166 204.889 152.132 210.387C138.616 216.114 124.276 219 109.5 219ZM109.5 11.431C55.4372 11.431 11.454 55.4143 11.454 109.477C11.454 163.54 55.4372 207.523 109.5 207.523C163.563 207.523 207.546 163.54 207.546 109.477C207.546 55.4372 163.563 11.431 109.5 11.431Z" fill="black"/>
</svg>
