<svg width="56" height="56" viewBox="0 0 56 56" fill="none" xmlns="http://www.w3.org/2000/svg">
<path d="M30.1192 46.6916C30.5908 46.8013 30.637 47.4268 30.1796 47.5856C30.0083 47.6451 29.834 47.7042 29.6567 47.7633L25.97 48.9767C16.7067 51.9633 11.83 49.4667 8.82 40.2033L5.83334 30.9867C2.84667 21.7233 5.32 16.8233 14.5833 13.8367L17.1607 12.9831C17.5635 12.8497 17.9457 13.2499 17.8108 13.6523C17.5208 14.5174 17.2595 15.4656 17.01 16.4967L14.7233 26.2733C12.1567 37.2633 15.9133 43.33 26.9033 45.9433L30.1192 46.6916Z" fill="#000000"/>
<path d="M40.0633 7.49L36.1667 6.58C28.3733 4.73667 23.73 6.25333 21 11.9C20.3 13.3233 19.74 15.05 19.2733 17.0333L16.9867 26.81C14.7 36.5633 17.71 41.37 27.44 43.68L31.36 44.6133C32.7133 44.94 33.9733 45.15 35.14 45.2433C42.42 45.9433 46.2933 42.5367 48.2533 34.1133L50.54 24.36C52.8267 14.6067 49.84 9.77667 40.0633 7.49ZM35.6767 31.1033C35.4667 31.8967 34.7667 32.41 33.9733 32.41C33.8333 32.41 33.6933 32.3867 33.53 32.3633L26.74 30.6367C25.8067 30.4033 25.2467 29.4467 25.48 28.5133C25.7133 27.58 26.67 27.02 27.6033 27.2533L34.3933 28.98C35.35 29.2133 35.91 30.17 35.6767 31.1033ZM42.5133 23.2167C42.3033 24.01 41.6033 24.5233 40.81 24.5233C40.67 24.5233 40.53 24.5 40.3667 24.4767L29.05 21.6067C28.1167 21.3733 27.5567 20.4167 27.79 19.4833C28.0233 18.55 28.98 17.99 29.9133 18.2233L41.23 21.0933C42.1867 21.3033 42.7467 22.26 42.5133 23.2167Z" fill="#000000"/>
</svg>
