<svg width="40" height="40" viewBox="0 0 40 40" fill="none" xmlns="http://www.w3.org/2000/svg">
<g clip-path="url(#clip0_1_96)">
<path d="M11.1111 30.5556H15.5556C16 30.5556 16.3889 30.3889 16.7222 30.0556C17.0556 29.7222 17.2222 29.3333 17.2222 28.8889V24.4444C17.2222 24 17.0556 23.6111 16.7222 23.2778C16.3889 22.9444 16 22.7778 15.5556 22.7778H11.1111C10.6667 22.7778 10.2778 22.9444 9.94444 23.2778C9.61111 23.6111 9.44444 24 9.44444 24.4444V28.8889C9.44444 29.3333 9.61111 29.7222 9.94444 30.0556C10.2778 30.3889 10.6667 30.5556 11.1111 30.5556ZM24.4444 30.5556H28.8889C29.3333 30.5556 29.7222 30.3889 30.0556 30.0556C30.3889 29.7222 30.5556 29.3333 30.5556 28.8889V24.4444C30.5556 24 30.3889 23.6111 30.0556 23.2778C29.7222 22.9444 29.3333 22.7778 28.8889 22.7778H24.4444C24 22.7778 23.6111 22.9444 23.2778 23.2778C22.9444 23.6111 22.7778 24 22.7778 24.4444V28.8889C22.7778 29.3333 22.9444 29.7222 23.2778 30.0556C23.6111 30.3889 24 30.5556 24.4444 30.5556ZM11.1111 17.2222H15.5556C16.037 17.2222 16.4352 17.0648 16.75 16.75C17.0648 16.4352 17.2222 16.037 17.2222 15.5556V11.1111C17.2222 10.6296 17.0648 10.2315 16.75 9.91667C16.4352 9.60185 16.037 9.44444 15.5556 9.44444H11.1111C10.6296 9.44444 10.2315 9.60185 9.91667 9.91667C9.60185 10.2315 9.44444 10.6296 9.44444 11.1111V15.5556C9.44444 16.037 9.60185 16.4352 9.91667 16.75C10.2315 17.0648 10.6296 17.2222 11.1111 17.2222ZM24.4444 17.2222H28.8889C29.3704 17.2222 29.7685 17.0648 30.0833 16.75C30.3981 16.4352 30.5556 16.037 30.5556 15.5556V11.1111C30.5556 10.6296 30.3981 10.2315 30.0833 9.91667C29.7685 9.60185 29.3704 9.44444 28.8889 9.44444H24.4444C23.963 9.44444 23.5648 9.60185 23.25 9.91667C22.9352 10.2315 22.7778 10.6296 22.7778 11.1111V15.5556C22.7778 16.037 22.9352 16.4352 23.25 16.75C23.5648 17.0648 23.963 17.2222 24.4444 17.2222ZM3.33333 40C2.44444 40 1.66667 39.6667 1 39C0.333333 38.3333 0 37.5556 0 36.6667V3.33333C0 2.44444 0.333333 1.66667 1 1C1.66667 0.333333 2.44444 0 3.33333 0H36.6667C37.5556 0 38.3333 0.333333 39 1C39.6667 1.66667 40 2.44444 40 3.33333V36.6667C40 37.5556 39.6667 38.3333 39 39C38.3333 39.6667 37.5556 40 36.6667 40H3.33333Z" fill="#000000"/>
</g>
<defs>
<clipPath id="clip0_1_96">
<rect width="40" height="40" rx="9" fill="#000000"/>
</clipPath>
</defs>
</svg>
