<svg width="40" height="40" viewBox="0 0 40 40" fill="none" xmlns="http://www.w3.org/2000/svg">
<g clip-path="url(#clip0_1_157)">
<path d="M10.7778 29.1111V32.6111C10.7778 33.0122 10.9096 33.3441 11.1733 33.6067C11.4367 33.8689 11.77 34 12.1733 34C12.5763 34 12.9074 33.8689 13.1667 33.6067C13.4259 33.3441 13.5556 33.0122 13.5556 32.6111V29.1111H17.0556C17.4567 29.1111 17.7885 28.9793 18.0511 28.7156C18.3133 28.4522 18.4444 28.1189 18.4444 27.7156C18.4444 27.3126 18.3133 26.9815 18.0511 26.7222C17.7885 26.463 17.4567 26.3333 17.0556 26.3333H13.5556V22.8333C13.5556 22.4322 13.4237 22.1004 13.16 21.8378C12.8967 21.5756 12.5633 21.4444 12.16 21.4444C11.757 21.4444 11.4259 21.5756 11.1667 21.8378C10.9074 22.1004 10.7778 22.4322 10.7778 22.8333V26.3333H7.27778C6.87667 26.3333 6.54482 26.4652 6.28222 26.7289C6.02 26.9922 5.88889 27.3256 5.88889 27.7289C5.88889 28.1319 6.02 28.463 6.28222 28.7222C6.54482 28.9815 6.87667 29.1111 7.27778 29.1111H10.7778ZM24.1111 32.0556H32.5556C32.9407 32.0556 33.2593 31.9237 33.5111 31.66C33.763 31.3967 33.8889 31.0633 33.8889 30.66C33.8889 30.257 33.7685 29.9352 33.5278 29.6944C33.287 29.4537 32.963 29.3333 32.5556 29.3333H24.0556C23.6704 29.3333 23.3519 29.4537 23.1 29.6944C22.8481 29.9352 22.7222 30.257 22.7222 30.66C22.7222 31.0633 22.8533 31.3967 23.1156 31.66C23.3781 31.9237 23.71 32.0556 24.1111 32.0556ZM24.1111 26.1111H32.5C32.9011 26.1111 33.233 25.9793 33.4956 25.7156C33.7578 25.4522 33.8889 25.1189 33.8889 24.7156C33.8889 24.3126 33.7578 23.9815 33.4956 23.7222C33.233 23.463 32.9011 23.3333 32.5 23.3333H24.1111C23.71 23.3333 23.3781 23.4652 23.1156 23.7289C22.8533 23.9922 22.7222 24.3256 22.7222 24.7289C22.7222 25.1319 22.8533 25.463 23.1156 25.7222C23.3781 25.9815 23.71 26.1111 24.1111 26.1111ZM8.11111 13.0556H16.2222C16.6233 13.0556 16.9552 12.9237 17.2178 12.66C17.48 12.3967 17.6111 12.0633 17.6111 11.66C17.6111 11.257 17.48 10.9259 17.2178 10.6667C16.9552 10.4074 16.6233 10.2778 16.2222 10.2778H8.11111C7.71 10.2778 7.37815 10.4096 7.11556 10.6733C6.85333 10.9367 6.72222 11.27 6.72222 11.6733C6.72222 12.0763 6.85333 12.4074 7.11556 12.6667C7.37815 12.9259 7.71 13.0556 8.11111 13.0556ZM3.33333 40C2.44444 40 1.66667 39.6667 1 39C0.333333 38.3333 0 37.5556 0 36.6667V3.33333C0 2.44444 0.333333 1.66667 1 1C1.66667 0.333333 2.44444 0 3.33333 0H36.6667C37.5556 0 38.3333 0.333333 39 1C39.6667 1.66667 40 2.44444 40 3.33333V36.6667C40 37.5556 39.6667 38.3333 39 39C38.3333 39.6667 37.5556 40 36.6667 40H3.33333ZM28.1667 13.6667L30.5556 16.0556C30.8385 16.3519 31.1685 16.5 31.5456 16.5C31.9226 16.5 32.2593 16.3519 32.5556 16.0556C32.8519 15.7593 33 15.4259 33 15.0556C33 14.6852 32.8519 14.3519 32.5556 14.0556L30.1667 11.6667L32.5556 9.27778C32.8519 8.99481 33 8.66481 33 8.28778C33 7.91074 32.8519 7.57407 32.5556 7.27778C32.2593 6.98148 31.9226 6.83333 31.5456 6.83333C31.1685 6.83333 30.8385 6.98148 30.5556 7.27778L28.1667 9.66667L25.7778 7.27778C25.4948 6.98148 25.1648 6.83333 24.7878 6.83333C24.4107 6.83333 24.0741 6.98148 23.7778 7.27778C23.4815 7.57407 23.3333 7.91074 23.3333 8.28778C23.3333 8.66481 23.4815 8.99481 23.7778 9.27778L26.1667 11.6667L23.7778 14.0556C23.4815 14.3411 23.3333 14.6744 23.3333 15.0556C23.3333 15.4367 23.4815 15.77 23.7778 16.0556C24.0607 16.3519 24.3907 16.5 24.7678 16.5C25.1448 16.5 25.4815 16.3519 25.7778 16.0556L28.1667 13.6667Z" fill="#000000"/>
</g>
<defs>
<clipPath id="clip0_1_157">
<rect width="40" height="40" rx="9" fill="#000000"/>
</clipPath>
</defs>
</svg>
