<svg width="207" height="195" viewBox="0 0 207 195" fill="none" xmlns="http://www.w3.org/2000/svg">
<path d="M186.341 0C178.08 0 170.947 13.288 167.642 32.4981C163.916 22.5293 158.822 16.3798 153.205 16.3798C144.943 16.3798 137.81 29.6677 134.506 48.8779C130.779 38.9091 125.686 32.7595 120.068 32.7595C111.807 32.7595 104.674 46.0475 101.369 65.2577C97.643 55.2888 92.5495 49.1393 86.9318 49.1393C78.6705 49.1393 71.5373 62.4273 68.2328 81.6374C64.5066 71.6686 59.4131 65.5191 53.7954 65.5191C45.5341 65.5191 38.4009 78.8071 35.0963 98.0172C31.3702 88.0484 26.2767 81.8989 20.659 81.8989C9.2527 81.8989 0 107.213 0 138.449C0 169.686 9.2527 195 20.659 195C28.9203 195 36.0535 181.712 39.3581 162.502C43.0842 172.471 48.1777 178.62 53.7954 178.62C62.0567 178.62 69.1899 165.332 72.4945 146.122C76.2206 156.091 81.3141 162.24 86.9318 162.24C95.1931 162.24 102.326 148.953 105.631 129.742C109.357 139.711 114.451 145.861 120.068 145.861C128.33 145.861 135.463 132.573 138.767 113.363C142.493 123.331 147.587 129.481 153.205 129.481C161.466 129.481 168.599 116.193 171.904 96.9828C175.63 106.952 180.723 113.101 186.341 113.101C197.747 113.101 207 87.7869 207 56.5506C207 25.3142 197.759 0 186.341 0Z" fill="black"/>
</svg>
