<svg width="149" height="148" viewBox="0 0 149 148" fill="none" xmlns="http://www.w3.org/2000/svg">
<path d="M6.24192 12.4837C9.68919 12.4837 12.4836 9.6891 12.4836 6.24183C12.4836 2.79456 9.68919 0 6.24192 0C2.79466 0 0 2.79456 0 6.24183C0 9.6891 2.79466 12.4837 6.24192 12.4837Z" fill="black"/>
<path d="M33.5267 12.4837C36.974 12.4837 39.7687 9.6891 39.7687 6.24183C39.7687 2.79456 36.974 0 33.5267 0C30.0795 0 27.285 2.79456 27.285 6.24183C27.285 9.6891 30.0795 12.4837 33.5267 12.4837Z" fill="black"/>
<path d="M60.8103 12.4837C64.2576 12.4837 67.052 9.6891 67.052 6.24183C67.052 2.79456 64.2576 0 60.8103 0C57.363 0 54.5684 2.79456 54.5684 6.24183C54.5684 9.6891 57.363 12.4837 60.8103 12.4837Z" fill="black"/>
<path d="M88.1421 12.4837C91.5893 12.4837 94.384 9.6891 94.384 6.24183C94.384 2.79456 91.5893 0 88.1421 0C84.6948 0 81.9004 2.79456 81.9004 6.24183C81.9004 9.6891 84.6948 12.4837 88.1421 12.4837Z" fill="black"/>
<path d="M115.427 12.4837C118.875 12.4837 121.669 9.6891 121.669 6.24183C121.669 2.79456 118.875 0 115.427 0C111.98 0 109.185 2.79456 109.185 6.24183C109.185 9.6891 111.98 12.4837 115.427 12.4837Z" fill="black"/>
<path d="M142.758 12.4837C146.206 12.4837 149 9.6891 149 6.24183C149 2.79456 146.206 0 142.758 0C139.311 0 136.517 2.79456 136.517 6.24183C136.517 9.6891 139.311 12.4837 142.758 12.4837Z" fill="black"/>
<path d="M6.24192 34.9673C9.68919 34.9673 12.4836 32.1727 12.4836 28.7255C12.4836 25.2782 9.68919 22.4836 6.24192 22.4836C2.79466 22.4836 0 25.2782 0 28.7255C0 32.1727 2.79466 34.9673 6.24192 34.9673Z" fill="black"/>
<path d="M33.5267 34.9674C36.974 34.9674 39.7687 32.1728 39.7687 28.7256C39.7687 25.2783 36.974 22.4837 33.5267 22.4837C30.0795 22.4837 27.285 25.2783 27.285 28.7256C27.285 32.1728 30.0795 34.9674 33.5267 34.9674Z" fill="black"/>
<path d="M60.8103 34.9673C64.2576 34.9673 67.052 32.1727 67.052 28.7255C67.052 25.2782 64.2576 22.4836 60.8103 22.4836C57.363 22.4836 54.5684 25.2782 54.5684 28.7255C54.5684 32.1727 57.363 34.9673 60.8103 34.9673Z" fill="black"/>
<path d="M88.1421 34.9674C91.5893 34.9674 94.384 32.1728 94.384 28.7256C94.384 25.2783 91.5893 22.4837 88.1421 22.4837C84.6948 22.4837 81.9004 25.2783 81.9004 28.7256C81.9004 32.1728 84.6948 34.9674 88.1421 34.9674Z" fill="black"/>
<path d="M115.427 34.9674C118.875 34.9674 121.669 32.1728 121.669 28.7256C121.669 25.2783 118.875 22.4837 115.427 22.4837C111.98 22.4837 109.185 25.2783 109.185 28.7256C109.185 32.1728 111.98 34.9674 115.427 34.9674Z" fill="black"/>
<path d="M142.758 34.9674C146.206 34.9674 149 32.1728 149 28.7256C149 25.2783 146.206 22.4837 142.758 22.4837C139.311 22.4837 136.517 25.2783 136.517 28.7256C136.517 32.1728 139.311 34.9674 142.758 34.9674Z" fill="black"/>
<path d="M6.24192 57.451C9.68919 57.451 12.4836 54.6564 12.4836 51.2091C12.4836 47.7618 9.68919 44.9673 6.24192 44.9673C2.79466 44.9673 0 47.7618 0 51.2091C0 54.6564 2.79466 57.451 6.24192 57.451Z" fill="black"/>
<path d="M33.5267 57.4512C36.974 57.4512 39.7687 54.6566 39.7687 51.2093C39.7687 47.762 36.974 44.9675 33.5267 44.9675C30.0795 44.9675 27.285 47.762 27.285 51.2093C27.285 54.6566 30.0795 57.4512 33.5267 57.4512Z" fill="black"/>
<path d="M60.8103 57.451C64.2576 57.451 67.052 54.6564 67.052 51.2091C67.052 47.7618 64.2576 44.9673 60.8103 44.9673C57.363 44.9673 54.5684 47.7618 54.5684 51.2091C54.5684 54.6564 57.363 57.451 60.8103 57.451Z" fill="black"/>
<path d="M88.1421 57.4512C91.5893 57.4512 94.384 54.6566 94.384 51.2093C94.384 47.762 91.5893 44.9675 88.1421 44.9675C84.6948 44.9675 81.9004 47.762 81.9004 51.2093C81.9004 54.6566 84.6948 57.4512 88.1421 57.4512Z" fill="black"/>
<path d="M115.427 57.4512C118.875 57.4512 121.669 54.6566 121.669 51.2093C121.669 47.762 118.875 44.9675 115.427 44.9675C111.98 44.9675 109.185 47.762 109.185 51.2093C109.185 54.6566 111.98 57.4512 115.427 57.4512Z" fill="black"/>
<path d="M142.758 57.4512C146.206 57.4512 149 54.6566 149 51.2093C149 47.762 146.206 44.9675 142.758 44.9675C139.311 44.9675 136.517 47.762 136.517 51.2093C136.517 54.6566 139.311 57.4512 142.758 57.4512Z" fill="black"/>
<path d="M6.24192 79.9346C9.68919 79.9346 12.4836 77.14 12.4836 73.6928C12.4836 70.2455 9.68919 67.4509 6.24192 67.4509C2.79466 67.4509 0 70.2455 0 73.6928C0 77.14 2.79466 79.9346 6.24192 79.9346Z" fill="black"/>
<path d="M33.5267 79.9344C36.974 79.9344 39.7687 77.1398 39.7687 73.6926C39.7687 70.2453 36.974 67.4507 33.5267 67.4507C30.0795 67.4507 27.285 70.2453 27.285 73.6926C27.285 77.1398 30.0795 79.9344 33.5267 79.9344Z" fill="black"/>
<path d="M60.8103 79.9346C64.2576 79.9346 67.052 77.14 67.052 73.6928C67.052 70.2455 64.2576 67.4509 60.8103 67.4509C57.363 67.4509 54.5684 70.2455 54.5684 73.6928C54.5684 77.14 57.363 79.9346 60.8103 79.9346Z" fill="black"/>
<path d="M88.1421 79.9344C91.5893 79.9344 94.384 77.1398 94.384 73.6926C94.384 70.2453 91.5893 67.4507 88.1421 67.4507C84.6948 67.4507 81.9004 70.2453 81.9004 73.6926C81.9004 77.1398 84.6948 79.9344 88.1421 79.9344Z" fill="black"/>
<path d="M115.427 79.9344C118.875 79.9344 121.669 77.1398 121.669 73.6926C121.669 70.2453 118.875 67.4507 115.427 67.4507C111.98 67.4507 109.185 70.2453 109.185 73.6926C109.185 77.1398 111.98 79.9344 115.427 79.9344Z" fill="black"/>
<path d="M142.758 79.9344C146.206 79.9344 149 77.1398 149 73.6926C149 70.2453 146.206 67.4507 142.758 67.4507C139.311 67.4507 136.517 70.2453 136.517 73.6926C136.517 77.1398 139.311 79.9344 142.758 79.9344Z" fill="black"/>
<path d="M6.24192 102.418C9.68919 102.418 12.4836 99.6237 12.4836 96.1764C12.4836 92.7291 9.68919 89.9346 6.24192 89.9346C2.79466 89.9346 0 92.7291 0 96.1764C0 99.6237 2.79466 102.418 6.24192 102.418Z" fill="black"/>
<path d="M33.5267 102.418C36.974 102.418 39.7687 99.6236 39.7687 96.1763C39.7687 92.729 36.974 89.9345 33.5267 89.9345C30.0795 89.9345 27.285 92.729 27.285 96.1763C27.285 99.6236 30.0795 102.418 33.5267 102.418Z" fill="black"/>
<path d="M60.8103 102.418C64.2576 102.418 67.052 99.6237 67.052 96.1764C67.052 92.7291 64.2576 89.9346 60.8103 89.9346C57.363 89.9346 54.5684 92.7291 54.5684 96.1764C54.5684 99.6237 57.363 102.418 60.8103 102.418Z" fill="black"/>
<path d="M88.1421 102.418C91.5893 102.418 94.384 99.6236 94.384 96.1763C94.384 92.729 91.5893 89.9345 88.1421 89.9345C84.6948 89.9345 81.9004 92.729 81.9004 96.1763C81.9004 99.6236 84.6948 102.418 88.1421 102.418Z" fill="black"/>
<path d="M115.427 102.418C118.875 102.418 121.669 99.6236 121.669 96.1763C121.669 92.729 118.875 89.9345 115.427 89.9345C111.98 89.9345 109.185 92.729 109.185 96.1763C109.185 99.6236 111.98 102.418 115.427 102.418Z" fill="black"/>
<path d="M142.758 102.418C146.206 102.418 149 99.6236 149 96.1763C149 92.729 146.206 89.9345 142.758 89.9345C139.311 89.9345 136.517 92.729 136.517 96.1763C136.517 99.6236 139.311 102.418 142.758 102.418Z" fill="black"/>
<path d="M6.24192 124.902C9.68919 124.902 12.4836 122.108 12.4836 118.66C12.4836 115.213 9.68919 112.418 6.24192 112.418C2.79466 112.418 0 115.213 0 118.66C0 122.108 2.79466 124.902 6.24192 124.902Z" fill="black"/>
<path d="M33.5267 124.902C36.974 124.902 39.7687 122.108 39.7687 118.66C39.7687 115.213 36.974 112.418 33.5267 112.418C30.0795 112.418 27.285 115.213 27.285 118.66C27.285 122.108 30.0795 124.902 33.5267 124.902Z" fill="black"/>
<path d="M60.8103 124.902C64.2576 124.902 67.052 122.108 67.052 118.66C67.052 115.213 64.2576 112.418 60.8103 112.418C57.363 112.418 54.5684 115.213 54.5684 118.66C54.5684 122.108 57.363 124.902 60.8103 124.902Z" fill="black"/>
<path d="M88.1421 124.902C91.5893 124.902 94.384 122.108 94.384 118.66C94.384 115.213 91.5893 112.418 88.1421 112.418C84.6948 112.418 81.9004 115.213 81.9004 118.66C81.9004 122.108 84.6948 124.902 88.1421 124.902Z" fill="black"/>
<path d="M115.427 124.902C118.875 124.902 121.669 122.108 121.669 118.66C121.669 115.213 118.875 112.418 115.427 112.418C111.98 112.418 109.185 115.213 109.185 118.66C109.185 122.108 111.98 124.902 115.427 124.902Z" fill="black"/>
<path d="M142.758 124.902C146.206 124.902 149 122.108 149 118.66C149 115.213 146.206 112.418 142.758 112.418C139.311 112.418 136.517 115.213 136.517 118.66C136.517 122.108 139.311 124.902 142.758 124.902Z" fill="black"/>
<path d="M6.24192 147.386C9.68919 147.386 12.4836 144.591 12.4836 141.144C12.4836 137.697 9.68919 134.902 6.24192 134.902C2.79466 134.902 0 137.697 0 141.144C0 144.591 2.79466 147.386 6.24192 147.386Z" fill="black"/>
<path d="M33.5267 147.386C36.974 147.386 39.7687 144.591 39.7687 141.144C39.7687 137.697 36.974 134.902 33.5267 134.902C30.0795 134.902 27.285 137.697 27.285 141.144C27.285 144.591 30.0795 147.386 33.5267 147.386Z" fill="black"/>
<path d="M60.8103 147.386C64.2576 147.386 67.052 144.591 67.052 141.144C67.052 137.697 64.2576 134.902 60.8103 134.902C57.363 134.902 54.5684 137.697 54.5684 141.144C54.5684 144.591 57.363 147.386 60.8103 147.386Z" fill="black"/>
<path d="M88.1421 147.386C91.5893 147.386 94.384 144.591 94.384 141.144C94.384 137.697 91.5893 134.902 88.1421 134.902C84.6948 134.902 81.9004 137.697 81.9004 141.144C81.9004 144.591 84.6948 147.386 88.1421 147.386Z" fill="black"/>
<path d="M115.427 147.386C118.875 147.386 121.669 144.591 121.669 141.144C121.669 137.697 118.875 134.902 115.427 134.902C111.98 134.902 109.185 137.697 109.185 141.144C109.185 144.591 111.98 147.386 115.427 147.386Z" fill="black"/>
<path d="M142.758 147.386C146.206 147.386 149 144.591 149 141.144C149 137.697 146.206 134.902 142.758 134.902C139.311 134.902 136.517 137.697 136.517 141.144C136.517 144.591 139.311 147.386 142.758 147.386Z" fill="black"/>
</svg>
