<svg width="32" height="32" viewBox="0 0 32 32" fill="none" xmlns="http://www.w3.org/2000/svg">
<path d="M4.88879 26.6668C4.28879 26.6668 3.76835 26.4464 3.32746 26.0058C2.88679 25.5649 2.66646 25.0444 2.66646 24.4444V7.55577C2.66646 6.95577 2.88679 6.43532 3.32746 5.99444C3.76835 5.55377 4.28879 5.33344 4.88879 5.33344H27.1108C27.7108 5.33344 28.2312 5.55377 28.6721 5.99444C29.1128 6.43532 29.3331 6.95577 29.3331 7.55577V24.4444C29.3331 25.0444 29.1128 25.5649 28.6721 26.0058C28.2312 26.4464 27.7108 26.6668 27.1108 26.6668H4.88879ZM15.9998 16.8444L4.88879 9.66677V24.4444H27.1108V9.66677L15.9998 16.8444ZM15.9998 14.6224L27.0221 7.55577H4.99979L15.9998 14.6224ZM4.88879 9.66677V7.55577V24.4444V9.66677Z" fill="black"/>
</svg>
