<svg width="32" height="32" viewBox="0 0 32 32" fill="none" xmlns="http://www.w3.org/2000/svg">
<path d="M5.74366 26C5.07011 26 4.49999 25.7667 4.03333 25.3C3.56666 24.8333 3.33333 24.2632 3.33333 23.5897V8.41033C3.33333 7.73678 3.56666 7.16667 4.03333 6.7C4.49999 6.23333 5.07011 6 5.74366 6H26.2563C26.9299 6 27.5 6.23333 27.9667 6.7C28.4333 7.16667 28.6667 7.73678 28.6667 8.41033V23.5897C28.6667 24.2632 28.4333 24.8333 27.9667 25.3C27.5 25.7667 26.9299 26 26.2563 26H5.74366ZM5.74366 24H19.6667V19.077H5.33333V23.5897C5.33333 23.6923 5.37611 23.7863 5.46166 23.8717C5.547 23.9572 5.64099 24 5.74366 24ZM21.6667 24H26.2563C26.359 24 26.453 23.9572 26.5383 23.8717C26.6239 23.7863 26.6667 23.6923 26.6667 23.5897V12.154H21.6667V24ZM5.33333 17.077H19.6667V12.154H5.33333V17.077Z" fill="black"/>
</svg>
