<svg width="32" height="32" viewBox="0 0 32 32" fill="none" xmlns="http://www.w3.org/2000/svg">
<path d="M10.2227 22.533C10.5263 22.533 10.7874 22.4237 11.006 22.2053C11.2245 21.9866 11.3337 21.7255 11.3337 21.422C11.3337 21.1182 11.2245 20.8571 11.006 20.6386C10.7874 20.42 10.5263 20.3106 10.2227 20.3106C9.91892 20.3106 9.65781 20.42 9.43937 20.6386C9.2207 20.8571 9.11137 21.1182 9.11137 21.422C9.11137 21.7255 9.2207 21.9866 9.43937 22.2053C9.65781 22.4237 9.91892 22.533 10.2227 22.533ZM10.2227 17.1106C10.5263 17.1106 10.7874 17.0014 11.006 16.783C11.2245 16.5645 11.3337 16.3034 11.3337 15.9996C11.3337 15.6959 11.2245 15.4347 11.006 15.2163C10.7874 14.9979 10.5263 14.8886 10.2227 14.8886C9.91892 14.8886 9.65781 14.9979 9.43937 15.2163C9.2207 15.4347 9.11137 15.6959 9.11137 15.9996C9.11137 16.3034 9.2207 16.5645 9.43937 16.783C9.65781 17.0014 9.91892 17.1106 10.2227 17.1106ZM10.2227 11.6886C10.5263 11.6886 10.7874 11.5793 11.006 11.3606C11.2245 11.1422 11.3337 10.8811 11.3337 10.5773C11.3337 10.2737 11.2245 10.0126 11.006 9.79397C10.7874 9.57552 10.5263 9.4663 10.2227 9.4663C9.91892 9.4663 9.65781 9.57552 9.43937 9.79397C9.2207 10.0126 9.11137 10.2737 9.11137 10.5773C9.11137 10.8811 9.2207 11.1422 9.43937 11.3606C9.65781 11.5793 9.91892 11.6886 10.2227 11.6886ZM14.4894 22.533H22.578V20.3106H14.4894V22.533ZM14.4894 17.1106H22.578V14.8886H14.4894V17.1106ZM14.4894 11.6886H22.578V9.4663H14.4894V11.6886ZM6.2227 27.9996C5.6227 27.9996 5.10226 27.7793 4.66137 27.3386C4.2207 26.8977 4.00037 26.3773 4.00037 25.7773V6.22197C4.00037 5.62197 4.2207 5.10152 4.66137 4.66063C5.10226 4.21997 5.6227 3.99963 6.2227 3.99963H25.778C26.378 3.99963 26.8985 4.21997 27.3394 4.66063C27.78 5.10152 28.0004 5.62197 28.0004 6.22197V25.7773C28.0004 26.3773 27.78 26.8977 27.3394 27.3386C26.8985 27.7793 26.378 27.9996 25.778 27.9996H6.2227ZM6.2227 25.7773H25.778V6.22197H6.2227V25.7773Z" fill="black"/>
</svg>
