<svg width="544" height="348" viewBox="0 0 544 348" fill="none" xmlns="http://www.w3.org/2000/svg">
<path d="M401.877 177.225L412.756 154.185C416.694 145.813 420.636 137.44 424.584 129.068C426.042 126.103 427.5 122.989 431.248 122.93C434.996 122.871 436.717 126.103 438.146 129.128C445.905 145.437 453.532 161.984 461.392 178.322C463.497 183.011 466.745 187.076 470.829 190.13C474.913 193.184 479.696 195.127 484.726 195.773C501.964 198.472 519.216 201.052 536.468 203.706C539.487 204.165 542.564 204.981 543.658 208.272C544.752 211.564 543.06 214.203 540.887 216.442L539.137 218.28C527.47 230.245 515.803 242.329 503.932 254.146C497.901 259.814 494.246 267.623 493.724 275.956C493.674 281.158 494.163 286.351 495.182 291.45C497.574 306.721 500.17 321.948 502.664 337.19C502.882 338.404 503.014 339.633 503.058 340.867C503.174 346.797 499.412 349.526 494.03 347.138C490.457 345.567 487.074 343.521 483.618 341.623C470.901 334.64 458.257 327.538 445.482 320.643C441.147 318.15 436.251 316.839 431.27 316.839C426.289 316.839 421.394 318.15 417.059 320.643C401.892 328.813 386.856 337.234 371.777 345.537C370.723 346.145 369.637 346.694 368.525 347.183C363.041 349.392 359.177 346.827 359.527 340.897C359.924 336.553 360.537 332.233 361.364 327.953C363.829 312.8 366.614 297.692 368.656 282.494C369.412 277.634 369.012 272.66 367.489 267.988C365.967 263.317 363.367 259.084 359.906 255.643C347.758 243.026 335.435 230.601 323.214 218.058C321.924 216.83 320.77 215.463 319.772 213.981C317.205 209.874 318.445 205.959 323.039 204.536C326.393 203.656 329.805 203.017 333.247 202.623C347.442 200.439 361.646 198.279 375.86 196.144C376.487 196.04 377.114 195.848 377.946 195.64C377.676 195.216 377.374 194.814 377.042 194.439C349.873 167.914 320.472 144.399 287.411 125.821C253.68 106.858 217.848 94.1962 179.494 89.3034C137.304 83.9065 95.872 88.31 55.1694 100.275C42.1318 104.115 29.3275 108.815 16.3482 113.145L53.3465 56.0917L0 25.2819C76.6946 -6.3581 153.404 -8.81932 230.302 20.8339C307.114 50.2648 363.406 103.552 401.877 177.225Z" fill="black"/>
</svg>
