<svg width="63" height="63" viewBox="0 0 63 63" fill="none" xmlns="http://www.w3.org/2000/svg">
<path d="M11.5403 60.1136C12.2478 55.7358 12.9188 51.0967 13.7849 46.4328C14.244 44.5739 14.1933 42.6222 13.6382 40.7908C13.0832 38.9593 12.0452 37.3186 10.6376 36.0478C7.45374 32.9882 4.40414 29.8292 1.39109 26.5582C0.756765 25.8866 0.0493181 24.6678 0.244496 23.9838C0.439673 23.2997 1.74492 22.74 2.68421 22.5659C7.29528 21.7451 11.9308 21.0735 16.5662 20.3646C18.006 20.1747 19.3736 19.6105 20.5379 18.7263C21.7022 17.842 22.6239 16.6673 23.2144 15.3151C25.3369 10.8875 27.362 6.41009 29.5211 2.00734C29.8993 1.24868 30.8262 0.179079 31.3752 0.253702C31.8305 0.384179 32.2542 0.609644 32.6196 0.915791C32.985 1.22194 33.284 1.60209 33.4977 2.0322C35.6081 6.2857 37.6087 10.6014 39.597 14.9171C40.1944 16.3929 41.1675 17.6794 42.4156 18.6436C43.6637 19.6078 45.1415 20.2148 46.6967 20.4019C51.1004 21.0486 55.504 21.6456 59.8833 22.4913C60.9238 22.8444 61.9096 23.347 62.811 23.9838C62.3927 25.0352 61.8477 26.0295 61.1886 26.9438C58.1756 30.1774 55.0892 33.324 51.9542 36.4333C50.7385 37.567 49.833 39.0034 49.3261 40.6017C48.8193 42.1999 48.7286 43.905 49.0631 45.5498C49.8438 50.1764 50.6491 54.803 51.3078 59.442C51.442 60.437 51.3078 61.9916 50.7223 62.4145C50.1367 62.8374 48.6607 62.4145 47.7824 61.9792C43.7568 59.8898 39.7922 57.6511 35.8277 55.4373C34.5136 54.6351 33.0106 54.2114 31.479 54.2114C29.9473 54.2114 28.4442 54.6351 27.1301 55.4373C23.0314 57.7381 18.9204 60.0141 14.7729 62.228C12.4674 63.509 11.3817 62.8125 11.5403 60.1136Z" fill="#000000"/>
</svg>
